<svg width="1345" height="1278" viewBox="0 0 1345 1278" fill="none" xmlns="http://www.w3.org/2000/svg">
<ellipse cx="672.5" cy="639" rx="672.5" ry="639" fill="#EDE4E4"/>
<path d="M572.136 493.091H607.364V685.705C607.364 705.591 602.676 723.347 593.301 738.972C584.021 754.502 570.905 766.765 553.955 775.761C537.004 784.663 517.117 789.114 494.295 789.114C471.473 789.114 451.587 784.663 434.636 775.761C417.686 766.765 404.523 754.502 395.148 738.972C385.867 723.347 381.227 705.591 381.227 685.705V493.091H416.455V682.864C416.455 697.068 419.58 709.71 425.83 720.79C432.08 731.775 440.981 740.439 452.534 746.784C464.182 753.034 478.102 756.159 494.295 756.159C510.489 756.159 524.409 753.034 536.057 746.784C547.705 740.439 556.606 731.775 562.761 720.79C569.011 709.71 572.136 697.068 572.136 682.864V493.091Z" fill="#0FA61E"/>
<path d="M677.712 493.091H719.757L818.621 734.568H822.03L920.893 493.091H962.939V784H929.984V562.977H927.143L836.234 784H804.416L713.507 562.977H710.666V784H677.712V493.091Z" fill="#D7152D"/>
</svg>
